<?xml version="1.0" standalone="no"?>
<!DOCTYPE svg PUBLIC "-//W3C//DTD SVG 20010904//EN"
 "http://www.w3.org/TR/2001/REC-SVG-20010904/DTD/svg10.dtd">
<svg version="1.0" xmlns="http://www.w3.org/2000/svg"
 width="512.000000pt" height="512.000000pt" viewBox="0 0 512.000000 512.000000"
 preserveAspectRatio="xMidYMid meet">
<metadata>
Created by potrace 1.14, written by Peter Selinger 2001-2017
</metadata>
<g transform="translate(0.000000,512.000000) scale(0.100000,-0.100000)"
fill="#000000" stroke="none">
<path d="M570 4219 c1 -56 265 -2918 270 -2922 13 -10 1676 -829 1685 -829 8
0 1700 808 1713 817 5 4 282 2949 277 2953 -2 2 -891 7 -1974 10 l-1971 5 0
-34z m1771 -1194 l4 -190 -25 -12 c-14 -6 -188 -79 -387 -162 -200 -82 -370
-154 -378 -159 -12 -6 80 -50 346 -166 280 -122 364 -155 370 -144 5 7 118
241 251 520 134 279 246 508 249 508 3 0 269 -125 590 -279 l584 -279 3 -166
2 -167 -87 -41 c-49 -23 -310 -146 -582 -274 -272 -129 -497 -231 -500 -228
-3 3 -7 81 -9 173 l-4 166 404 184 c222 101 404 185 405 186 2 1 -165 75 -369
165 -204 91 -373 160 -375 154 -7 -21 -505 -1029 -512 -1036 -4 -5 -288 120
-631 277 l-625 284 0 153 0 153 635 286 c349 158 636 286 637 285 0 0 3 -86 4
-191z"/>
</g>
</svg>
